# xmcd
#
# Track frame offsets: 
#        150
#        19302
#        25522
#        35332
#        51929
#        73938
#        85888
#        101821
#        122990
#        142327
#        154759
#        165928
#        176944
#        190264
#        202412
#        221143
#        236887
#
# Disc length: 3450 seconds
#
# Revision: 2
# Processed by: cddbd v1.5.2PL0 Copyright (c) Steve Scherf et al.
# Submitted via: ExactAudioCopy v0.90b4
#
DISCID=080d7811
DTITLE=Various Artist - Guitar Heroes [CD2]
DYEAR=2000
DGENRE=Blues
TTITLE0=John Mayall - John Lee Boogie
TTITLE1=Eric Clapton - Choker
TTITLE2=John Mayall's Bluesbreakers - I'm Your Witch Doctor (Feat. Eri
TTITLE2=c Clapton)
TTITLE3=Tony Joe White - Polk Salad Annie (Live)
TTITLE4=John Mayall - A Big Man
TTITLE5=John Lee Hooker - I'm In The Mood
TTITLE6=Mitch Ryder - Devil With The Blue Dress (Re-recording)
TTITLE7=Mike Bloomfield - Cherry Red (Live)
TTITLE8=Johnny Winter - Prodigal Son
TTITLE9=Eric Clapton - Freight Loader
TTITLE10=John Lee Hooker - Boom Boom
TTITLE11=Johnny Guitar Watson - Johnny Guitar
TTITLE12=Tony Joe White - You Got Me Running (Live)
TTITLE13=Santana - Latin Tropical (Short Version) (Re-recording)
TTITLE14=Humble Pie - Natural Born Boogie
TTITLE15=Mitch Ryder - Jenny Take A Ride (Re-recording)
TTITLE16=The Booze Brothers - Midnight Special
EXTD=Guitar Heroes
EXTT0=
EXTT1=
EXTT2=
EXTT3=
EXTT4=
EXTT5=
EXTT6=
EXTT7=
EXTT8=
EXTT9=
EXTT10=
EXTT11=
EXTT12=
EXTT13=
EXTT14=
EXTT15=
EXTT16=
PLAYORDER=
